PathFileType	4	(X/Y/Z)	/Users/itak/Documents/Research/Walk-IL/dataset/trc/00462_00167.trc
DataRate	CameraRate	NumFrames	NumMarkers	Units	OrigDataRate	OrigDataStartFrame	OrigNumFrames
100.000000	100.000000	4	53	mm	100.000000	490	560
Frame#	Time	RPSI			LPSI			L3			STRN			T10			C7			CLAV			RBAK			LBAK			LSHO			LUPA			LAEL			LAOL			LWTS			LWPS			LFRA			LIFD			LHPS			LHTS			RSHO			RUPA			RAEL			RAOL			RWTS			RWPS			RFRA			RIFD			RHTS			RHPS			RBHD			LFHD			RFHD			LBHD			LHIP			RHIP			RASI			LASI			LKNE			LTHI			LANK			LTIP			LTOE			LMT1			LMT5			LHEE			RKNE			RTHI			RANK			RTIP			RTOE			RMT1			RMT5			RHEE			
		X1	Y1	Z1	X2	Y2	Z2	X3	Y3	Z3	X4	Y4	Z4	X5	Y5	Z5	X6	Y6	Z6	X7	Y7	Z7	X8	Y8	Z8	X9	Y9	Z9	X10	Y10	Z10	X11	Y11	Z11	X12	Y12	Z12	X13	Y13	Z13	X14	Y14	Z14	X15	Y15	Z15	X16	Y16	Z16	X17	Y17	Z17	X18	Y18	Z18	X19	Y19	Z19	X20	Y20	Z20	X21	Y21	Z21	X22	Y22	Z22	X23	Y23	Z23	X24	Y24	Z24	X25	Y25	Z25	X26	Y26	Z26	X27	Y27	Z27	X28	Y28	Z28	X29	Y29	Z29	X30	Y30	Z30	X31	Y31	Z31	X32	Y32	Z32	X33	Y33	Z33	X34	Y34	Z34	X35	Y35	Z35	X36	Y36	Z36	X37	Y37	Z37	X38	Y38	Z38	X39	Y39	Z39	X40	Y40	Z40	X41	Y41	Z41	X42	Y42	Z42	X43	Y43	Z43	X44	Y44	Z44	X45	Y45	Z45	X46	Y46	Z46	X47	Y47	Z47	X48	Y48	Z48	X49	Y49	Z49	X50	Y50	Z50	X51	Y51	Z51	X52	Y52	Z52	X53	Y53	Z53	

491	4.9	211.5847473144531	957.2124633789062	215.0569610595703	352.744873046875	953.8651123046875	212.7166290283203	268.3666381835938	1043.564453125	222.8416137695312	290.1136169433594	1254.94287109375	476.2034606933594	269.2378845214844	1167.470092773438	196.1049499511719	255.9165344238281	1438.655029296875	250.6144409179688	290.0013122558594	1365.953369140625	434.1829528808594	162.1245880126953	1315.906982421875	198.8983154296875	354.0370788574219	1392.004638671875	208.5714569091797	443.9015197753906	1419.898071289062	300.4614868164062	541.877685546875	1300.868408203125	286.4461364746094	578.822509765625	1085.601684570312	318.0064392089844	505.4341125488281	1066.927856445312	247.6743621826172	544.9994506835938	885.9393310546875	411.3486938476562	596.7713623046875	870.513916015625	360.0860595703125	591.2739868164062	999.1737670898438	342.6067810058594	551.0185546875	714.8121337890625	413.2292175292969	599.9392700195312	792.2100830078125	369.6662902832031	559.3162841796875	798.4190063476562	428.9497680664062	103.0672378540039	1411.010009765625	329.6257019042969	27.53916168212891	1348.274658203125	315.7826538085938	-23.61180305480957	1061.872436523438	325.0346374511719	14.20688915252686	1046.593627929688	270.8868713378906	33.13891983032227	852.446533203125	413.6266479492188	-31.19740676879883	841.0572509765625	354.4134216308594	-32.30426406860352	1002.775085449219	328.6930541992188	28.67721366882324	695.5894775390625	403.8620910644531	24.58981513977051	753.0316772460938	422.7119140625	-24.80968475341797	752.8665771484375	364.1251831054688	168.7039794921875	1626.385498046875	397.9940185546875	369.7994079589844	1666.983520507812	428.6686706542969	259.6431274414062	1651.823486328125	498.365966796875	308.8687744140625	1650.71826171875	289.6907958984375	477.0130004882812	856.7965698242188	343.3979187011719	73.99378967285156	857.345947265625	333.4812316894531	138.9150085449219	898.5674438476562	439.5711669921875	399.0928649902344	894.0713500976562	444.1458740234375	452.90771484375	440.31298828125	327.0267028808594	470.5088195800781	590.0405883789062	360.3277587890625	461.2239379882812	36.57174301147461	237.6801452636719	471.5019226074219	296.7283325195312	311.8529968261719	390.4640808105469	39.93869018554688	472.5529174804688	362.7427368164062	49.04538345336914	396.0549621582031	477.4429626464844	38.11180114746094	391.1163330078125	397.150634765625	43.82618713378906	193.3521118164062	111.2405700683594	463.7760620117188	343.4990539550781	68.35308837890625	724.3153076171875	374.8913879394531	120.8405303955078	36.02686309814453	290.9924621582031	105.0685043334961	322.5755615234375	339.7947387695312	176.6815948486328	43.84070587158203	505.0902099609375	208.6072845458984	50.17324447631836	440.2518920898438	100.2891082763672	42.99312973022461	425.9498901367188	166.6600494384766	27.78059768676758	225.1002807617188	
492	4.91	211.2779998779297	957.3970947265625	215.4590301513672	352.4037475585938	953.9237060546875	212.8663635253906	268.0770263671875	1043.564819335938	223.3089752197266	290.30859375	1254.862915039062	476.6775817871094	269.0734252929688	1167.497436523438	196.6284332275391	255.7513122558594	1438.664672851562	251.2248382568359	290.0973815917969	1365.882202148438	434.72509765625	162.0316009521484	1315.959594726562	199.5658111572266	353.8543090820312	1392.065551757812	208.9779205322266	443.8299865722656	1420.022216796875	300.769775390625	541.8665161132812	1301.065185546875	286.6618957519531	579.3065185546875	1086.03857421875	318.4339904785156	505.7808532714844	1066.977294921875	248.3777465820312	546.1907348632812	886.8106689453125	412.724365234375	597.7499389648438	871.1804809570312	361.3500671386719	592.0005493164062	999.7416381835938	343.3306274414062	552.5717163085938	715.6920776367188	415.5051879882812	601.1387939453125	792.9714965820312	371.3418273925781	560.7161254882812	799.422119140625	430.7542724609375	103.0649108886719	1410.985229492188	330.3882446289062	27.53987312316895	1348.228637695312	316.5382385253906	-23.79418182373047	1061.8857421875	325.5737915039062	14.03297901153564	1046.560791015625	271.4465637207031	32.88201904296875	852.5628662109375	414.4994812011719	-31.35976028442383	841.1022338867188	355.1707153320312	-32.45781326293945	1002.785278320312	329.2654724121094	28.3834114074707	695.68359375	404.8577270507812	24.38279914855957	753.1480102539062	423.5567626953125	-24.97717475891113	752.9318237304688	364.9451904296875	168.6000061035156	1626.295043945312	398.6753845214844	369.6353454589844	1666.997314453125	429.2658996582031	259.5489501953125	1651.782836914062	499.0122680664062	308.6849670410156	1650.728515625	290.3539428710938	476.8712768554688	856.7680053710938	343.139892578125	74.85850524902344	856.9468383789062	334.5162048339844	139.0735931396484	898.4512939453125	440.1502990722656	399.2383117675781	893.9535522460938	444.1345520019531	452.9276428222656	440.3098754882812	326.8336181640625	470.5825805664062	590.0144653320312	360.0872192382812	461.2329711914062	36.54880523681641	237.6643981933594	471.4935302734375	296.7128295898438	311.6793823242188	390.4750061035156	39.94749450683594	472.538818359375	362.7555541992188	49.05667495727539	396.0439147949219	477.4603271484375	38.09836578369141	391.1058959960938	397.1566467285156	43.7990837097168	193.3435211181641	111.2449264526367	463.7399291992188	343.7779235839844	68.94666290283203	723.98193359375	375.7335510253906	120.8852920532227	36.06833648681641	290.9866638183594	105.0764541625977	322.5081787109375	340.0255126953125	176.6820831298828	43.83904266357422	505.1050415039062	208.6419982910156	50.15281677246094	440.257568359375	100.3233337402344	43.00530242919922	425.9470520019531	166.6810150146484	27.78906631469727	225.1162261962891	
493	4.92	210.9808654785156	957.5615844726562	215.8682403564453	352.0997619628906	953.9864501953125	213.0280914306641	267.7813720703125	1043.549926757812	223.7920837402344	290.5043029785156	1254.794189453125	477.1376647949219	268.9284057617188	1167.488159179688	197.1330261230469	255.5971832275391	1438.673095703125	251.8128204345703	290.1961059570312	1365.821411132812	435.247802734375	161.9549865722656	1315.996215820312	200.1912841796875	353.7008361816406	1392.120239257812	209.3650665283203	443.7762451171875	1420.122192382812	301.0675659179688	541.8679809570312	1301.239501953125	286.9126281738281	579.7526245117188	1086.453247070312	318.9127502441406	506.1392211914062	1067.015869140625	249.0888519287109	547.2854614257812	887.6388549804688	414.0965881347656	598.661376953125	871.8269653320312	362.6503295898438	592.6880493164062	1000.285278320312	344.1010437011719	554.007080078125	716.5372314453125	417.7420959472656	602.2970581054688	793.7139892578125	373.0501098632812	562.0196533203125	800.3921508789062	432.5534973144531	103.0735244750977	1410.97265625	331.1117553710938	27.55469512939453	1348.212524414062	317.2447204589844	-23.99277877807617	1061.901123046875	326.1091613769531	13.88437175750732	1046.521362304688	272.01123046875	32.57769775390625	852.772216796875	415.5419616699219	-31.49958610534668	841.1808471679688	356.0348510742188	-32.57579040527344	1002.802368164062	329.8311157226562	28.06781959533691	695.8649291992188	406.1495971679688	24.11666107177734	753.37109375	424.6468811035156	-25.14131546020508	753.0469360351562	365.9709167480469	168.5067749023438	1626.192993164062	399.3296203613281	369.4814147949219	1667.011962890625	429.8408203125	259.45849609375	1651.733276367188	499.6317443847656	308.5198974609375	1650.73583984375	290.9820251464844	476.7330627441406	856.7339477539062	342.8983764648438	75.57649993896484	856.650634765625	335.4607238769531	139.244140625	898.3434448242188	440.6913452148438	399.3795471191406	893.8263549804688	444.138427734375	452.9508056640625	440.3168334960938	326.6296081542969	470.6411743164062	589.987548828125	359.8621520996094	461.2398986816406	36.52841186523438	237.6503295898438	471.4976806640625	296.7129516601562	311.5099792480469	390.486083984375	39.95503234863281	472.5260314941406	362.7698364257812	49.06767654418945	396.0332641601562	477.4774780273438	38.08452606201172	391.095947265625	397.16259765625	43.77874755859375	193.3364410400391	111.248779296875	463.7090148925781	344.04150390625	69.53179931640625	723.657470703125	376.5202941894531	120.9137268066406	36.10365676879883	290.9901733398438	105.0857543945312	322.4422912597656	340.2562866210938	176.681640625	43.83649826049805	505.1210327148438	208.6715393066406	50.13304901123047	440.2623596191406	100.3551864624023	43.01630401611328	425.9454956054688	166.6979064941406	27.79899787902832	225.1299743652344	
494	4.93	210.6927337646484	957.6966552734375	216.2912445068359	351.8304138183594	954.0530395507812	213.2002105712891	267.4935913085938	1043.530883789062	224.2673492431641	290.6994934082031	1254.735595703125	477.5822143554688	268.8052673339844	1167.454345703125	197.6073608398438	255.4534454345703	1438.681396484375	252.3780517578125	290.2948303222656	1365.771362304688	435.7518920898438	161.8777770996094	1316.012451171875	200.7773590087891	353.5792846679688	1392.173461914062	209.7380065917969	443.730712890625	1420.194946289062	301.3638000488281	541.8745727539062	1301.39453125	287.1974792480469	580.1702270507812	1086.842163085938	319.428955078125	506.5090026855469	1067.044067382812	249.7974090576172	548.2823486328125	888.4176635742188	415.4606018066406	599.5081176757812	872.4490356445312	363.9709167480469	593.3351440429688	1000.799560546875	344.9059448242188	555.3135375976562	717.3479614257812	419.935302734375	603.4027709960938	794.4293212890625	374.7751159667969	563.2330322265625	801.3248291015625	434.3414611816406	103.0893020629883	1410.969116210938	331.7978515625	27.58015441894531	1348.225341796875	317.9076232910156	-24.2030086517334	1061.920166015625	326.6511535644531	13.75341892242432	1046.473876953125	272.5875244140625	32.22580718994141	853.0643920898438	416.7527770996094	-31.62482261657715	841.2925415039062	357.0140686035156	-32.66764831542969	1002.826538085938	330.4079895019531	27.74461364746094	696.1253051757812	407.7051391601562	23.79596710205078	753.6896362304688	425.9735107421875	-25.3079833984375	753.2139892578125	367.1981811523438	168.4255676269531	1626.079345703125	399.9545288085938	369.3445739746094	1667.030395507812	430.3937377929688	259.3678588867188	1651.673828125	500.2303161621094	308.3730163574219	1650.739624023438	291.5725402832031	476.6069030761719	856.697509765625	342.6932983398438	75.9522705078125	856.5492553710938	336.2616577148438	139.4142913818359	898.2471313476562	441.1969604492188	399.5169372558594	893.6944580078125	444.1619262695312	452.9780883789062	440.3295288085938	326.4188232421875	470.6864624023438	589.9608764648438	359.6578674316406	461.2452087402344	36.51004028320312	237.6379089355469	471.5099792480469	296.7305297851562	311.3502807617188	390.4972229003906	39.96133422851562	472.5144958496094	362.786376953125	49.07822799682617	396.0223083496094	477.4944152832031	38.07070541381836	391.0863037109375	397.1688842773438	43.76303482055664	193.3306884765625	111.2525177001953	463.6859741210938	344.2870788574219	70.08064270019531	723.349853515625	377.2403869628906	120.9280166625977	36.1329345703125	291.0007934570312	105.093879699707	322.3838500976562	340.4802551269531	176.6802520751953	43.83330917358398	505.1383972167969	208.6939086914062	50.11476898193359	440.2665405273438	100.3826217651367	43.02613830566406	425.9447937011719	166.7112884521484	27.81182861328125	225.1387176513672	
